<?xml version="1.0" standalone="no"?>
<!DOCTYPE svg PUBLIC "-//W3C//DTD SVG 20010904//EN"
 "http://www.w3.org/TR/2001/REC-SVG-20010904/DTD/svg10.dtd">
<svg version="1.0" xmlns="http://www.w3.org/2000/svg"
 width="400.000000pt" height="400.000000pt" viewBox="0 0 400.000000 400.000000"
 preserveAspectRatio="xMidYMid meet">
<metadata>
Created by potrace 1.16, written by Peter Selinger 2001-2019
</metadata>
<g transform="translate(0.000000,400.000000) scale(0.100000,-0.100000)"
fill="#000000" stroke="none">
<path d="M1868 3124 c-48 -98 -138 -286 -202 -416 l-115 -237 -73 -37 c-86
-43 -217 -128 -273 -178 l-40 -35 130 56 c398 171 978 310 1417 340 l103 7
-85 19 c-62 13 -136 19 -275 22 l-190 3 -155 318 -155 317 -87 -179z"/>
<path d="M2730 2513 c-228 -16 -557 -83 -798 -161 -90 -30 -117 -42 -116 -55
1 -9 -3 -17 -10 -18 -6 0 -3 -4 7 -8 10 -4 19 -11 20 -16 1 -12 6 -18 97 -110
64 -65 78 -87 185 -303 175 -353 188 -362 520 -362 l204 0 -18 43 c-11 23 -85
177 -166 342 -81 165 -160 328 -175 362 l-28 61 78 28 c44 15 77 31 74 35 -3
5 1 7 8 4 19 -7 220 59 211 70 -4 4 -3 5 4 2 6 -4 91 12 188 36 145 36 171 45
145 51 -32 6 -341 6 -430 -1z"/>
</g>
</svg>
