<?xml version="1.0" standalone="no"?>
<!DOCTYPE svg PUBLIC "-//W3C//DTD SVG 20010904//EN"
 "http://www.w3.org/TR/2001/REC-SVG-20010904/DTD/svg10.dtd">
<svg version="1.0" xmlns="http://www.w3.org/2000/svg"
 width="512.000000pt" height="512.000000pt" viewBox="0 0 512.000000 512.000000"
 preserveAspectRatio="xMidYMid meet">

<g transform="translate(0.000000,512.000000) scale(0.100000,-0.100000)"
fill="#000000" stroke="none">
<path d="M1665 4310 c-68 -15 -184 -60 -246 -96 -32 -19 -90 -65 -127 -102
-174 -172 -232 -406 -148 -595 95 -214 376 -284 563 -141 51 39 101 121 120
198 14 57 15 81 6 143 -6 44 -18 82 -28 93 -23 26 -70 25 -95 0 -40 -40 -15
-110 40 -110 22 0 23 -3 17 -54 -17 -169 -174 -270 -343 -221 -47 13 -69 27
-111 70 -91 94 -105 208 -47 384 75 228 235 357 482 392 115 16 240 -9 341
-68 142 -83 265 -274 293 -456 32 -211 -119 -660 -408 -1215 -279 -534 -560
-868 -803 -954 -107 -38 -275 -22 -371 35 -155 92 -251 256 -251 430 1 342
364 585 610 407 34 -25 91 -102 91 -123 0 -4 -13 -7 -29 -7 -18 0 -40 -11 -60
-29 -26 -24 -31 -37 -31 -73 1 -66 44 -108 112 -108 84 0 145 86 135 190 -18
205 -225 319 -478 266 -275 -59 -473 -348 -474 -691 0 -182 52 -310 175 -435
204 -207 500 -257 760 -129 69 35 102 60 181 138 99 100 152 172 254 350 l60
104 255 128 c256 128 687 329 706 329 6 0 39 -75 73 -167 210 -560 434 -978
631 -1175 137 -136 325 -218 505 -218 132 0 240 35 362 118 131 89 326 344
308 403 -16 50 -77 66 -110 29 -14 -15 -16 -29 -12 -64 6 -41 3 -50 -30 -93
-93 -125 -211 -184 -368 -185 -339 -2 -676 340 -936 952 -55 130 -185 499
-177 504 2 1 48 19 103 39 227 82 399 128 548 147 158 19 382 -22 540 -100 91
-44 92 -45 92 -81 0 -71 68 -104 113 -56 29 30 28 62 -2 92 -30 30 -228 127
-328 160 -278 92 -586 83 -986 -28 l-122 -34 -25 81 c-13 45 -47 158 -76 251
-232 773 -435 1142 -704 1282 -138 71 -230 95 -380 99 -71 2 -148 -1 -170 -6z
m925 -1200 c27 -96 78 -266 113 -378 43 -134 61 -205 53 -208 -85 -32 -686
-228 -686 -224 0 4 30 71 66 151 78 170 154 358 269 665 46 123 90 234 97 247
11 21 13 19 26 -28 7 -27 35 -129 62 -225z"/>
</g>
</svg>
